<?xml version="1.0" encoding="UTF-8"?>
<svg id="Layer_1" data-name="Layer 1" xmlns="http://www.w3.org/2000/svg" viewBox="0 0 313.75 504.11">
  <defs>
    <style>
      .cls-1 {
        fill: #4a5f41;
      }

      .cls-2 {
        fill: #f26f21;
      }
    </style>
  </defs>
  <path class="cls-2" d="M310.86,2.55c-33.18-7.73-68.34,2.38-92.3,26.68-4.92,4.99-9.22,10.46-12.9,16.26,1.02,1.81,2.01,3.64,2.93,5.52,11.32,23.05,13.69,49.18,7.47,73.44,25.8-.16,50.98-10.45,69.48-29.23,23.95-24.31,33.54-59.62,25.32-92.68Z"/>
  <path class="cls-2" d="M122.07.16c-18.25,28.77-20.31,65.3-5.27,95.93,15.04,30.63,45.21,51.34,79.13,54.49,18.25-28.77,20.31-65.3,5.27-95.93C186.16,24.01,155.99,3.31,122.07.16Z"/>
  <path class="cls-1" d="M208.66,325.64c-19-3.08-38.41-2.34-57.22,1.73-20.96,4.53-45.64,8.76-51.85-4.07-1.32-3.13.3-6.04,3.3-8.59,13.08,3.9,26.93,6.01,41.28,6.01,79.62,0,144.17-64.55,144.17-144.17,0-22.06-4.96-42.96-13.82-61.65-17.5,11.61-38.12,17.8-59.08,17.8-.62,0-1.23-.02-1.85-.03-1.38,4.02-3.02,7.97-4.89,11.82,4.82,9.66,7.54,20.54,7.54,32.05,0,39.75-32.34,72.09-72.09,72.09s-72.09-32.34-72.09-72.09c0-29.56,17.89-55,43.4-66.12-2.21-3.43-4.25-7-6.07-10.71-9.29-18.92-12.55-39.92-9.99-60.26C41.71,58.29,0,112.54,0,176.54c0,47.17,22.65,89.04,57.67,115.35-11.56,9.3-25.04,25.3-25.04,49.4,0,42.18,42.47,46.01,78.16,46.01s48.67-12.39,83.77-2.95c35.1,9.44,20.06,61.94-47.19,56.63-67.25-5.31-81.68-35.02-81.81-35.18-9.2-11.53-24.47-16.29-38.43-11.53l-.21.07c-22.43,7.65-30.76,35.2-16.13,53.84,3.8,4.85,7.92,9.39,12.29,13.64l.02-.03c5.08,4.57,49.35,42.31,127.22,42.31,95.27-7.67,132.14-47.78,130.67-102.06,0-41.12-21.68-68.2-72.33-76.41Z"/>
</svg>