<?xml version="1.0" encoding="UTF-8"?>
<svg id="Layer_1" data-name="Layer 1" xmlns="http://www.w3.org/2000/svg" viewBox="0 0 490 128.55">
  <defs>
    <style>
      .cls-1 {
        fill: #fff;
      }

      .cls-2 {
        fill: #f26f21;
      }
    </style>
  </defs>
  <path class="cls-2" d="M70.3,15.13c-7.5-1.75-15.45.54-20.87,6.03-1.11,1.13-2.09,2.36-2.92,3.68.23.41.45.82.66,1.25,2.56,5.21,3.1,11.12,1.69,16.61,5.83-.04,11.53-2.36,15.71-6.61,5.42-5.5,7.59-13.48,5.73-20.96Z"/>
  <path class="cls-2" d="M27.61,14.59c-4.13,6.51-4.59,14.77-1.19,21.69,3.4,6.93,10.22,11.61,17.9,12.32,4.13-6.51,4.59-14.77,1.19-21.69-3.4-6.93-10.22-11.61-17.9-12.32Z"/>
  <path class="cls-1" d="M47.19,88.19c-4.3-.7-8.69-.53-12.94.39-4.74,1.02-10.32,1.98-11.72-.92-.3-.71.07-1.36.75-1.94,2.96.88,6.09,1.36,9.34,1.36,18.01,0,32.6-14.6,32.6-32.6,0-4.99-1.12-9.71-3.12-13.94-3.96,2.62-8.62,4.03-13.36,4.03-.14,0-.28,0-.42,0-.31.91-.68,1.8-1.11,2.67,1.09,2.18,1.71,4.65,1.71,7.25,0,8.99-7.31,16.3-16.3,16.3s-16.3-7.31-16.3-16.3c0-6.68,4.05-12.44,9.81-14.95-.5-.78-.96-1.58-1.37-2.42-2.1-4.28-2.84-9.03-2.26-13.63C9.43,27.73,0,40,0,54.48c0,10.67,5.12,20.14,13.04,26.08-2.61,2.1-5.66,5.72-5.66,11.17,0,9.54,9.61,10.41,17.68,10.41s11.01-2.8,18.94-.67c7.94,2.13,4.54,14.01-10.67,12.81-15.21-1.2-18.47-7.92-18.5-7.96-2.08-2.61-5.53-3.68-8.69-2.61l-.05.02c-5.07,1.73-6.96,7.96-3.65,12.18.86,1.1,1.79,2.12,2.78,3.08h0c1.15,1.03,11.16,9.56,28.77,9.56,21.54-1.73,29.88-10.81,29.55-23.08,0-9.3-4.9-15.42-16.36-17.28Z"/>
  <path class="cls-1" d="M132.23,52.83c0,4.91-3.16,7.36-8.18,7.36h-37.99c.7,7.71,7.6,13.21,16.13,13.21,5.73,0,9.94-2.34,13.09-6.08,1.64-1.99,3.51-2.69,5.38-2.69,3.74,0,7.13,3.16,7.13,7.01,0,1.52-.58,3.27-2.1,4.91-5.96,6.55-13.79,10.52-23.61,10.52-18.82,0-32.49-12.62-32.49-31.56s13.09-32.03,31.44-32.03,29.1,11.81,31.09,27.58c.12.58.12,1.17.12,1.75ZM86.06,49.21h30.04c-.7-7.36-6.9-12.39-15.08-12.39s-14.49,5.03-14.96,12.39Z"/>
  <path class="cls-1" d="M165.89,24.55c5.14,0,7.48,3.16,7.48,6.55,0,3.74-2.69,7.71-9,8.07-7.83.47-11.69,4.68-11.69,11.81v27.47c0,5.49-4.21,8.3-8.3,8.3s-8.3-2.81-8.3-8.3v-46.17c0-5.38,4.21-8.3,8.3-8.3s8.3,2.92,8.3,8.3v.12c2.45-4.09,5.96-7.01,11.45-7.71.58-.12,1.17-.12,1.75-.12Z"/>
  <path class="cls-1" d="M232.51,52.83c0,4.91-3.16,7.36-8.18,7.36h-37.99c.7,7.71,7.6,13.21,16.13,13.21,5.73,0,9.94-2.34,13.09-6.08,1.64-1.99,3.51-2.69,5.38-2.69,3.74,0,7.13,3.16,7.13,7.01,0,1.52-.58,3.27-2.1,4.91-5.96,6.55-13.79,10.52-23.61,10.52-18.82,0-32.49-12.62-32.49-31.56s13.09-32.03,31.44-32.03,29.1,11.81,31.09,27.58c.12.58.12,1.17.12,1.75ZM186.34,49.21h30.04c-.7-7.36-6.9-12.39-15.08-12.39s-14.49,5.03-14.96,12.39Z"/>
  <path class="cls-1" d="M296.68,50.26v27.82c0,5.73-4.32,8.65-8.42,8.65s-8.42-2.92-8.42-8.65v-25.25c0-11.81-6.66-15.08-12.97-15.08-7.95,0-13.68,5.03-13.79,15.55v25.01c0,5.49-4.21,8.3-8.3,8.3s-8.42-2.81-8.42-8.3v-45.94c0-5.49,4.21-8.3,8.42-8.3s8.3,2.69,8.3,8.3v1.05c3.86-6.31,10.05-9.94,18.82-9.94,12.86,0,24.78,8.18,24.78,26.77Z"/>
  <path class="cls-1" d="M332.79,87.08c-15.78,0-32.61-9.47-32.61-31.79s16.6-31.56,32.26-31.56c5.61,0,11.22,1.17,15.78,3.39,3.27,1.64,4.68,4.32,4.68,6.9,0,3.51-2.57,6.9-6.55,6.9-.82,0-1.75-.23-2.8-.58-2.69-1.05-5.73-1.64-8.77-1.64-9,0-18,4.79-18,16.71,0,10.99,8.53,16.6,17.88,16.6,2.92,0,5.96-.47,8.88-1.64.94-.35,1.75-.47,2.57-.47,3.86,0,6.55,3.51,6.55,7.13,0,2.57-1.29,5.26-4.56,6.78-4.44,2.1-9.82,3.27-15.31,3.27Z"/>
  <path class="cls-2" d="M356.99,9.35c0-5.14,4.21-9.35,9.35-9.35s9.35,4.21,9.35,9.35-4.21,9.35-9.35,9.35-9.35-4.21-9.35-9.35Z"/>
  <path class="cls-1" d="M358.04,32.26c0-5.38,4.21-8.3,8.3-8.3s8.3,2.92,8.3,8.3v46.17c0,5.38-4.09,8.3-8.3,8.3-3.97,0-8.3-2.81-8.3-8.3v-46.17Z"/>
  <path class="cls-1" d="M445.82,32.49v45.94c0,5.38-4.09,8.3-8.3,8.3s-8.42-2.92-8.42-8.3v-3.04c-3.04,7.25-11.1,11.69-21.27,11.69-18.47,0-29.45-14.49-29.45-31.91s11.57-31.68,30.39-31.68c7.6,0,15.66,3.39,20.34,10.17v-1.17c0-5.61,4.21-8.3,8.42-8.3s8.3,2.69,8.3,8.3ZM428.99,55.29c0-9.58-7.01-16.71-16.83-16.71s-17.06,7.01-17.06,16.71,7.13,16.95,17.06,16.95,16.83-7.25,16.83-16.95Z"/>
  <path class="cls-1" d="M482.52,24.55c5.14,0,7.48,3.16,7.48,6.55,0,3.74-2.69,7.71-9,8.07-7.83.47-11.69,4.68-11.69,11.81v27.47c0,5.49-4.21,8.3-8.3,8.3s-8.3-2.81-8.3-8.3v-46.17c0-5.38,4.21-8.3,8.3-8.3s8.3,2.92,8.3,8.3v.12c2.45-4.09,5.96-7.01,11.45-7.71.58-.12,1.17-.12,1.75-.12Z"/>
</svg>